<svg xmlns="http://www.w3.org/2000/svg" viewBox="0 0 800 520" font-family="system-ui, -apple-system, sans-serif">
  <defs>
    <filter id="shadow" x="-2%" y="-2%" width="104%" height="104%">
      <feDropShadow dx="1" dy="2" stdDeviation="3" flood-opacity="0.1"/>
    </filter>
  </defs>

  <rect width="800" height="520" fill="#FAF8F3" rx="12"/>

  <!-- Title -->
  <text x="400" y="30" text-anchor="middle" font-size="17" font-weight="bold" fill="#1A1A1A">RR vs OR——什麼時候兩者差不多？什麼時候差很大？</text>

  <!-- ===== Section 1: Plain language RR and OR ===== -->
  <g filter="url(#shadow)">
    <rect x="20" y="48" width="370" height="140" rx="10" fill="#FFFFFF" stroke="#D97757" stroke-width="1.5"/>
  </g>
  <rect x="20" y="48" width="370" height="28" rx="10" fill="#D97757" fill-opacity="0.12"/>
  <text x="30" y="67" font-size="13" font-weight="bold" fill="#D97757">RR 的白話文</text>
  <text x="40" y="95" font-size="12" fill="#1A1A1A">RR = 2 的意思：</text>
  <text x="40" y="115" font-size="12" fill="#D97757" font-weight="bold">「有暴露的人，得病風險是沒暴露的 2 倍。」</text>
  <text x="40" y="140" font-size="11" fill="#6B6B6B">像秤重：暴露組的風險放左邊，未暴露組放右邊，</text>
  <text x="40" y="157" font-size="11" fill="#6B6B6B">看看左邊是右邊的幾倍。⚖️ 比值 = RR。</text>
  <text x="40" y="178" font-size="10" fill="#6B6B6B">公式：RR = (a/(a+b)) ÷ (c/(c+d)) = 風險₁ ÷ 風險₀</text>

  <g filter="url(#shadow)">
    <rect x="410" y="48" width="370" height="140" rx="10" fill="#FFFFFF" stroke="#6A9BCC" stroke-width="1.5"/>
  </g>
  <rect x="410" y="48" width="370" height="28" rx="10" fill="#6A9BCC" fill-opacity="0.12"/>
  <text x="420" y="67" font-size="13" font-weight="bold" fill="#6A9BCC">OR 的白話文</text>
  <text x="430" y="95" font-size="12" fill="#1A1A1A">OR = 3 的意思：</text>
  <text x="430" y="115" font-size="12" fill="#6A9BCC" font-weight="bold">「有暴露的人，得病的勝算是沒暴露的 3 倍。」</text>
  <text x="430" y="140" font-size="11" fill="#6B6B6B">勝算 = 得病人數 ÷ 沒得病人數（不是除以全部！）</text>
  <text x="430" y="157" font-size="11" fill="#6B6B6B">🎰 像賭場賠率：3:1 表示贏的機會是輸的 3 倍。</text>
  <text x="430" y="178" font-size="10" fill="#6B6B6B">公式：OR = (a/b) ÷ (c/d) = (a×d) ÷ (b×c)</text>

  <!-- ===== Section 2: Rare disease approximation ===== -->
  <g filter="url(#shadow)">
    <rect x="20" y="205" width="760" height="145" rx="10" fill="#FFFFFF" stroke="#788C5D" stroke-width="1.5"/>
  </g>
  <rect x="20" y="205" width="760" height="28" rx="10" fill="#788C5D" fill-opacity="0.12"/>
  <text x="30" y="224" font-size="13" font-weight="bold" fill="#788C5D">為什麼罕見疾病時 OR ≈ RR？（10% 門檻）</text>

  <!-- Math intuition -->
  <text x="40" y="254" font-size="12" fill="#1A1A1A" font-weight="bold">數學直覺：</text>
  <text x="40" y="274" font-size="11" fill="#6B6B6B">Risk = p，Odds = p/(1−p)。當 p 很小（&lt; 10%），1−p ≈ 1，所以 Odds ≈ p ≈ Risk。</text>
  <text x="40" y="294" font-size="11" fill="#6B6B6B">兩組的 Odds 都 ≈ Risk → OR = Odds₁/Odds₀ ≈ Risk₁/Risk₀ = RR。</text>

  <text x="40" y="320" font-size="12" fill="#1A1A1A" font-weight="bold">生活比喻：</text>
  <text x="40" y="340" font-size="11" fill="#788C5D">🍬 一袋 100 顆糖果裡有 3 顆是酸的。「抽到酸的機率」= 3/100 = 3%。</text>

  <!-- ===== Section 3: Visual comparison at different AR ===== -->
  <g filter="url(#shadow)">
    <rect x="20" y="368" width="760" height="135" rx="10" fill="#FFFFFF" stroke="#D97757" stroke-width="1.5"/>
  </g>
  <rect x="20" y="368" width="760" height="28" rx="10" fill="#D97757" fill-opacity="0.12"/>
  <text x="30" y="387" font-size="13" font-weight="bold" fill="#D97757">侵襲率越高，OR 偏離 RR 越多——數字實例</text>

  <!-- Table header -->
  <text x="50" y="416" font-size="11" fill="#6B6B6B" font-weight="bold">侵襲率</text>
  <text x="170" y="416" font-size="11" fill="#6B6B6B" font-weight="bold">Risk₁</text>
  <text x="250" y="416" font-size="11" fill="#6B6B6B" font-weight="bold">Risk₀</text>
  <text x="330" y="416" font-size="11" fill="#D97757" font-weight="bold">RR</text>
  <text x="410" y="416" font-size="11" fill="#6A9BCC" font-weight="bold">OR</text>
  <text x="490" y="416" font-size="11" fill="#6B6B6B" font-weight="bold">OR/RR</text>
  <text x="580" y="416" font-size="11" fill="#6B6B6B" font-weight="bold">結論</text>

  <line x1="40" y1="422" x2="760" y2="422" stroke="#E8E5DF" stroke-width="1"/>

  <!-- Row 1: rare -->
  <rect x="40" y="426" width="720" height="20" rx="4" fill="#788C5D" fill-opacity="0.06"/>
  <text x="50" y="440" font-size="11" fill="#788C5D" font-weight="bold">低 (5%)</text>
  <text x="170" y="440" font-size="11" fill="#1A1A1A">10%</text>
  <text x="250" y="440" font-size="11" fill="#1A1A1A">5%</text>
  <text x="330" y="440" font-size="11" fill="#D97757" font-weight="bold">2.00</text>
  <text x="410" y="440" font-size="11" fill="#6A9BCC" font-weight="bold">2.11</text>
  <text x="490" y="440" font-size="11" fill="#1A1A1A">1.06</text>
  <text x="580" y="440" font-size="11" fill="#788C5D">✅ OR ≈ RR（差 6%）</text>

  <!-- Row 2: moderate -->
  <text x="50" y="462" font-size="11" fill="#D97757" font-weight="bold">中 (30%)</text>
  <text x="170" y="462" font-size="11" fill="#1A1A1A">50%</text>
  <text x="250" y="462" font-size="11" fill="#1A1A1A">30%</text>
  <text x="330" y="462" font-size="11" fill="#D97757" font-weight="bold">1.67</text>
  <text x="410" y="462" font-size="11" fill="#6A9BCC" font-weight="bold">2.33</text>
  <text x="490" y="462" font-size="11" fill="#1A1A1A">1.40</text>
  <text x="580" y="462" font-size="11" fill="#D97757">⚠️ OR 比 RR 大 40%</text>

  <!-- Row 3: high (our dataset) -->
  <rect x="40" y="468" width="720" height="20" rx="4" fill="#D94452" fill-opacity="0.06"/>
  <text x="50" y="484" font-size="11" fill="#D94452" font-weight="bold">高 (43%) ← 本案</text>
  <text x="170" y="484" font-size="11" fill="#1A1A1A">55%</text>
  <text x="250" y="484" font-size="11" fill="#1A1A1A">30%</text>
  <text x="330" y="484" font-size="11" fill="#D97757" font-weight="bold">1.83</text>
  <text x="410" y="484" font-size="11" fill="#6A9BCC" font-weight="bold">2.86</text>
  <text x="490" y="484" font-size="11" fill="#1A1A1A">1.56</text>
  <text x="580" y="484" font-size="11" fill="#D94452">❌ OR 高估 56%！</text>

  <text x="400" y="510" text-anchor="middle" font-size="11" fill="#D94452" font-weight="bold">結論：侵襲率 > 10% 時，OR 會系統性高估 RR。本案侵襲率 43%，一定要用 RR，別用 OR 來解讀風險倍數！</text>
</svg>
