<svg xmlns="http://www.w3.org/2000/svg" viewBox="0 0 820 582" font-family="system-ui, -apple-system, sans-serif">
  <defs>
    <filter id="shadow" x="-2%" y="-2%" width="104%" height="104%">
      <feDropShadow dx="1" dy="2" stdDeviation="3" flood-opacity="0.1"/>
    </filter>
    <marker id="arr" viewBox="0 0 10 10" refX="8" refY="5" markerWidth="7" markerHeight="7" orient="auto">
      <path d="M0 0 L10 5 L0 10 z" fill="#6B6B6B"/>
    </marker>
  </defs>
  <rect width="820" height="582" fill="#FAF8F3" rx="12"/>
  <text x="410" y="30" text-anchor="middle" font-size="18" font-weight="bold" fill="#1A1A1A">全班的眼睛一個接一個變紅！你是保健室疫調小組長，怎麼查？</text>
  <text x="410" y="51" text-anchor="middle" font-size="12" fill="#6B6B6B">照 SOP 一步步來：先定義病例 → 問「人、時、地」→ 交出一頁 SitRep 📋</text>
  <rect x="33" y="68" width="138" height="28" rx="14" fill="#6B6B6B" fill-opacity="0.12" stroke="#6B6B6B" stroke-width="1.3"/>
  <text x="102" y="87" text-anchor="middle" font-size="12" font-weight="bold" fill="#6B6B6B">① 定義病例</text>
  <line x1="173" y1="82" x2="185" y2="82" stroke="#6B6B6B" stroke-width="1.3" marker-end="url(#arr)"/>
  <rect x="187" y="68" width="138" height="28" rx="14" fill="#6A9BCC" fill-opacity="0.12" stroke="#6A9BCC" stroke-width="1.3"/>
  <text x="256" y="87" text-anchor="middle" font-size="12" font-weight="bold" fill="#6A9BCC">② 人 Person</text>
  <line x1="327" y1="82" x2="339" y2="82" stroke="#6B6B6B" stroke-width="1.3" marker-end="url(#arr)"/>
  <rect x="341" y="68" width="138" height="28" rx="14" fill="#D97757" fill-opacity="0.12" stroke="#D97757" stroke-width="1.3"/>
  <text x="410" y="87" text-anchor="middle" font-size="12" font-weight="bold" fill="#D97757">③ 時 Time</text>
  <line x1="481" y1="82" x2="493" y2="82" stroke="#6B6B6B" stroke-width="1.3" marker-end="url(#arr)"/>
  <rect x="495" y="68" width="138" height="28" rx="14" fill="#788C5D" fill-opacity="0.12" stroke="#788C5D" stroke-width="1.3"/>
  <text x="564" y="87" text-anchor="middle" font-size="12" font-weight="bold" fill="#788C5D">④ 地 Place</text>
  <line x1="635" y1="82" x2="647" y2="82" stroke="#6B6B6B" stroke-width="1.3" marker-end="url(#arr)"/>
  <rect x="649" y="68" width="138" height="28" rx="14" fill="#1A1A1A" fill-opacity="0.12" stroke="#1A1A1A" stroke-width="1.3"/>
  <text x="718" y="87" text-anchor="middle" font-size="12" font-weight="bold" fill="#1A1A1A">⑤ SitRep</text>
  <text x="410" y="118" text-anchor="middle" font-size="11" fill="#6B6B6B">👆 這就是「疫調食譜」：照著走，再慌也不會漏掉哪一步</text>
  <g filter="url(#shadow)"><rect x="24" y="132" width="250" height="262" rx="10" fill="#FFFFFF" stroke="#E8E5DF"/></g>
  <rect x="24" y="132" width="250" height="6" rx="3" fill="#6A9BCC"/>
  <text x="42" y="166" font-size="15" font-weight="bold" fill="#6A9BCC">人 Person</text>
  <text x="42" y="186" font-size="11" fill="#6B6B6B">誰中鏢？看哪些人</text>
  <g filter="url(#shadow)"><rect x="285" y="132" width="250" height="262" rx="10" fill="#FFFFFF" stroke="#E8E5DF"/></g>
  <rect x="285" y="132" width="250" height="6" rx="3" fill="#D97757"/>
  <text x="303" y="166" font-size="15" font-weight="bold" fill="#D97757">時 Time</text>
  <text x="303" y="186" font-size="11" fill="#6B6B6B">哪幾天爆？高峰在哪天</text>
  <g filter="url(#shadow)"><rect x="546" y="132" width="250" height="262" rx="10" fill="#FFFFFF" stroke="#E8E5DF"/></g>
  <rect x="546" y="132" width="250" height="6" rx="3" fill="#788C5D"/>
  <text x="564" y="166" font-size="15" font-weight="bold" fill="#788C5D">地 Place</text>
  <text x="564" y="186" font-size="11" fill="#6B6B6B">哪間教室最慘？</text>
  <circle cx="58" cy="224" r="10" fill="#FDECE7" stroke="#C9C4BC" stroke-width="1"/><circle cx="54.5" cy="222.5" r="1.8" fill="#D94452"/><circle cx="61.5" cy="222.5" r="1.8" fill="#D94452"/><path d="M54.5 228.5 Q58 226.5 61.5 228.5" stroke="#D94452" stroke-width="1" fill="none"/>
  <circle cx="94" cy="224" r="10" fill="#F5F3EE" stroke="#C9C4BC" stroke-width="1"/><circle cx="90.5" cy="222.5" r="1.8" fill="#6B6B6B"/><circle cx="97.5" cy="222.5" r="1.8" fill="#6B6B6B"/>
  <circle cx="130" cy="224" r="10" fill="#F5F3EE" stroke="#C9C4BC" stroke-width="1"/><circle cx="126.5" cy="222.5" r="1.8" fill="#6B6B6B"/><circle cx="133.5" cy="222.5" r="1.8" fill="#6B6B6B"/>
  <circle cx="166" cy="224" r="10" fill="#FDECE7" stroke="#C9C4BC" stroke-width="1"/><circle cx="162.5" cy="222.5" r="1.8" fill="#D94452"/><circle cx="169.5" cy="222.5" r="1.8" fill="#D94452"/><path d="M162.5 228.5 Q166 226.5 169.5 228.5" stroke="#D94452" stroke-width="1" fill="none"/>
  <circle cx="202" cy="224" r="10" fill="#F5F3EE" stroke="#C9C4BC" stroke-width="1"/><circle cx="198.5" cy="222.5" r="1.8" fill="#6B6B6B"/><circle cx="205.5" cy="222.5" r="1.8" fill="#6B6B6B"/>
  <circle cx="238" cy="224" r="10" fill="#F5F3EE" stroke="#C9C4BC" stroke-width="1"/><circle cx="234.5" cy="222.5" r="1.8" fill="#6B6B6B"/><circle cx="241.5" cy="222.5" r="1.8" fill="#6B6B6B"/>
  <circle cx="58" cy="264" r="10" fill="#F5F3EE" stroke="#C9C4BC" stroke-width="1"/><circle cx="54.5" cy="262.5" r="1.8" fill="#6B6B6B"/><circle cx="61.5" cy="262.5" r="1.8" fill="#6B6B6B"/>
  <circle cx="94" cy="264" r="10" fill="#FDECE7" stroke="#C9C4BC" stroke-width="1"/><circle cx="90.5" cy="262.5" r="1.8" fill="#D94452"/><circle cx="97.5" cy="262.5" r="1.8" fill="#D94452"/><path d="M90.5 268.5 Q94 266.5 97.5 268.5" stroke="#D94452" stroke-width="1" fill="none"/>
  <circle cx="130" cy="264" r="10" fill="#F5F3EE" stroke="#C9C4BC" stroke-width="1"/><circle cx="126.5" cy="262.5" r="1.8" fill="#6B6B6B"/><circle cx="133.5" cy="262.5" r="1.8" fill="#6B6B6B"/>
  <circle cx="166" cy="264" r="10" fill="#F5F3EE" stroke="#C9C4BC" stroke-width="1"/><circle cx="162.5" cy="262.5" r="1.8" fill="#6B6B6B"/><circle cx="169.5" cy="262.5" r="1.8" fill="#6B6B6B"/>
  <circle cx="202" cy="264" r="10" fill="#F5F3EE" stroke="#C9C4BC" stroke-width="1"/><circle cx="198.5" cy="262.5" r="1.8" fill="#6B6B6B"/><circle cx="205.5" cy="262.5" r="1.8" fill="#6B6B6B"/>
  <circle cx="238" cy="264" r="10" fill="#FDECE7" stroke="#C9C4BC" stroke-width="1"/><circle cx="234.5" cy="262.5" r="1.8" fill="#D94452"/><circle cx="241.5" cy="262.5" r="1.8" fill="#D94452"/><path d="M234.5 268.5 Q238 266.5 241.5 268.5" stroke="#D94452" stroke-width="1" fill="none"/>
  <text x="149.0" y="354" text-anchor="middle" font-size="22" font-weight="bold" fill="#6A9BCC">17 / 60 人</text>
  <text x="149.0" y="376" text-anchor="middle" font-size="12" fill="#6B6B6B">總侵襲率 28%（紅眼＝中鏢）</text>
  <rect x="309" y="316" width="30" height="16" rx="2" fill="#F0B79E"/>
  <text x="324" y="345" text-anchor="middle" font-size="9" fill="#6B6B6B">1</text>
  <rect x="342" y="284" width="30" height="48" rx="2" fill="#F0B79E"/>
  <text x="357" y="345" text-anchor="middle" font-size="9" fill="#6B6B6B">2</text>
  <rect x="375" y="236" width="30" height="96" rx="2" fill="#D97757"/>
  <text x="390" y="345" text-anchor="middle" font-size="9" fill="#6B6B6B">3</text>
  <rect x="408" y="268" width="30" height="64" rx="2" fill="#F0B79E"/>
  <text x="423" y="345" text-anchor="middle" font-size="9" fill="#6B6B6B">4</text>
  <rect x="441" y="300" width="30" height="32" rx="2" fill="#F0B79E"/>
  <text x="456" y="345" text-anchor="middle" font-size="9" fill="#6B6B6B">5</text>
  <rect x="474" y="316" width="30" height="16" rx="2" fill="#F0B79E"/>
  <text x="489" y="345" text-anchor="middle" font-size="9" fill="#6B6B6B">6</text>
  <text x="410.0" y="362" text-anchor="middle" font-size="9" fill="#6B6B6B">第幾天發病</text>
  <text x="390" y="230" text-anchor="middle" font-size="10" font-weight="bold" fill="#D97757">🚩高峰</text>
  <text x="410.0" y="380" text-anchor="middle" font-size="11" font-weight="bold" fill="#1A1A1A">高峰在第 3 天</text>
  <text x="566" y="227" font-size="11" font-weight="bold" fill="#1A1A1A">A班</text>
  <rect x="604" y="215" width="108" height="16" rx="2" fill="#788C5D"/>
  <text x="716" y="228" font-size="10" font-weight="bold" fill="#788C5D">60% (12/20)</text>
  <text x="566" y="269" font-size="11" font-weight="bold" fill="#1A1A1A">B班</text>
  <rect x="604" y="257" width="18" height="16" rx="2" fill="#B7C4A6"/>
  <text x="626" y="270" font-size="10" font-weight="bold" fill="#6B6B6B">10% (3/30)</text>
  <text x="566" y="311" font-size="11" font-weight="bold" fill="#1A1A1A">C班</text>
  <rect x="604" y="299" width="36" height="16" rx="2" fill="#B7C4A6"/>
  <text x="644" y="312" font-size="10" font-weight="bold" fill="#6B6B6B">20% (2/10)</text>
  <text x="564" y="354" font-size="15">💧</text>
  <text x="586" y="354" font-size="10" fill="#D94452">A 班在飲水機旁 → 頭號嫌疑</text>
  <text x="564" y="374" font-size="10" fill="#6B6B6B">⚠ 比「率」不比「人數」：B 班 3 人 &gt; C 班 2 人，</text>
  <text x="564" y="387" font-size="10" fill="#6B6B6B">　但 B 率 10% &lt; C 率 20%（B 班人多）</text>
  <g filter="url(#shadow)"><rect x="24" y="418" width="560" height="140" rx="10" fill="#FFFFFF" stroke="#E8E5DF"/></g>
  <text x="42" y="444" font-size="14" font-weight="bold" fill="#1A1A1A">📋 SitRep：一頁講完的戰情報告</text>
  <text x="42" y="470" font-size="11.5" fill="#1A1A1A">• 全校 60 人，<tspan font-weight="bold">17 人中鏢（28%）</tspan></text>
  <text x="42" y="491" font-size="11.5" fill="#1A1A1A">• 最嚴重：<tspan font-weight="bold" fill="#788C5D">A 班（侵襲率 60%）</tspan></text>
  <text x="42" y="512" font-size="11.5" fill="#1A1A1A">• 高峰：<tspan font-weight="bold" fill="#D97757">第 3 天</tspan>（單一高峰 → 可能同一個來源）</text>
  <text x="42" y="533" font-size="11.5" fill="#1A1A1A">• 建議：<tspan font-weight="bold" fill="#D94452">先停用並清消 A 班飲水機</tspan> 💧</text>
  <text x="42" y="551" font-size="9.5" fill="#6B6B6B">（描述性分析只指出「嫌疑犯」，定罪要靠後面的 2×2、迴歸 + 環境採檢）</text>
  <line x1="592" y1="488" x2="628" y2="488" stroke="#6B6B6B" stroke-width="1.6" marker-end="url(#arr)"/>
  <g filter="url(#shadow)"><rect x="636" y="418" width="160" height="140" rx="10" fill="#FAF8F3" stroke="#6A9BCC" stroke-width="1.5"/></g>
  <text x="716" y="452" text-anchor="middle" font-size="30">🏥</text>
  <text x="716" y="482" text-anchor="middle" font-size="12" font-weight="bold" fill="#1A1A1A">同一套流程</text>
  <text x="716" y="502" text-anchor="middle" font-size="11" fill="#6B6B6B">放大到護理之家</text>
  <text x="716" y="519" text-anchor="middle" font-size="11" fill="#6B6B6B">280 人的退伍軍人症</text>
  <text x="716" y="540" text-anchor="middle" font-size="11" fill="#6B6B6B">line list → SitRep</text>
</svg>
